# xmcd
#
# Track frame offsets:
#  150
#  16918
#  40646
#  56694
#  69103
#  81830
#  103270
#  121286
#  143190
#  154134
#  173078
#  192102
#  212374
#  229798
#
# Disc length: 3280 seconds
#
# Revision: 0
# Processed by: cddbd v1.5.1PL2 Copyright (c) Steve Scherf et al.
# Submitted via: Collectorz.com_Music_Collector 6.11
#
DISCID=b00cce0e
DTITLE=Todd Snider - Kpig Texas Uprising and Swine Soiree, Santa Cruz - 17/06/2001
DYEAR=2001
DGENRE=Alt Country
TTITLE0=Can't Complain
TTITLE1=Horseshoe Lake
TTITLE2=My Generation Part Ii
TTITLE3=Trouble
TTITLE4=Story: Trouble
TTITLE5=Easy Money > It's Only Rock 'n Roll
TTITLE6=Sideshow Blues
TTITLE7=Story: Keep Of The Grass
TTITLE8=Keep Of The Grass
TTITLE9=Waco Moon
TTITLE10=Talking Seattle Grunge Rock Blues > I Shal Be Free No. 10
TTITLE11=Alright Guy
TTITLE12=Beer Run
TTITLE13=Beer Run
EXTD=
EXTT0=
EXTT1=
EXTT2=
EXTT3=
EXTT4=
EXTT5=
EXTT6=
EXTT7=
EXTT8=
EXTT9=
EXTT10=
EXTT11=
EXTT12=
EXTT13=
PLAYORDER=
